<svg width="87" height="87" fill="none" xmlns="http://www.w3.org/2000/svg"><g clip-path="url(#clip0)" fill="#EA6012"><path d="M34.438 76.125H9.061C4.067 76.125 0 72.061 0 67.062V19.938c0-5 4.067-9.063 9.062-9.063h7.25a1.813 1.813 0 010 3.625h-7.25a5.444 5.444 0 00-5.437 5.438v47.124A5.444 5.444 0 009.062 72.5h25.376a1.813 1.813 0 010 3.625zm25.375-43.5A1.813 1.813 0 0158 30.812V19.938a5.444 5.444 0 00-5.438-5.437h-7.25a1.813 1.813 0 010-3.625h7.25c4.996 0 9.063 4.064 9.063 9.063v10.875c0 1-.812 1.812-1.813 1.812z"/><path d="M41.688 21.75h-21.75a5.444 5.444 0 01-5.438-5.438v-7.25c0-1 .812-1.812 1.813-1.812h5.618C22.776 3.117 26.433 0 30.812 0c4.38 0 8.037 3.118 8.882 7.25h5.618c1.001 0 1.813.812 1.813 1.813v7.25a5.444 5.444 0 01-5.438 5.437zM18.125 10.875v5.438c0 .996.812 1.812 1.813 1.812h21.75c1 0 1.812-.816 1.812-1.813v-5.437h-5.438c-1 0-1.812-.812-1.812-1.813a5.444 5.444 0 00-5.438-5.437 5.444 5.444 0 00-5.437 5.438c0 1-.812 1.812-1.813 1.812h-5.437zM63.438 87c-12.992 0-23.563-10.57-23.563-23.563 0-12.991 10.57-23.562 23.563-23.562C76.43 39.875 87 50.445 87 63.438 87 76.43 76.43 87 63.437 87zm0-43.5C52.443 43.5 43.5 52.447 43.5 63.438c0 10.99 8.943 19.937 19.938 19.937 10.994 0 19.937-8.947 19.937-19.938 0-10.99-8.943-19.937-19.938-19.937z"/><path d="M63.438 76.125a1.813 1.813 0 01-1.813-1.813v-21.75a1.813 1.813 0 013.625 0v21.75a1.813 1.813 0 01-1.813 1.813z"/><path d="M74.313 65.25h-21.75a1.813 1.813 0 010-3.625h21.75a1.813 1.813 0 010 3.625zM48.938 32.625h-36.25a1.813 1.813 0 010-3.625h36.25a1.813 1.813 0 010 3.625zM38.063 43.5H12.686a1.813 1.813 0 010-3.625h25.376a1.813 1.813 0 010 3.625zm-7.25 10.875H12.688a1.813 1.813 0 010-3.625h18.124a1.813 1.813 0 010 3.625z"/></g><defs><clipPath id="clip0"><path fill="#fff" d="M0 0h87v87H0z"/></clipPath></defs></svg>