<svg xmlns="http://www.w3.org/2000/svg" viewBox="0 0 336 455.5"><defs><style>.cls-1{fill:#01499f}</style></defs><g id="Capa_2" data-name="Capa 2"><g id="Capa_1-2" data-name="Capa 1"><path class="cls-1" d="M333.23 82h-90.4a2.65 2.65 0 01-2.77-2.5V3a2.65 2.65 0 00-2.77-2.5H2.77A2.65 2.65 0 000 3v450a2.65 2.65 0 002.77 2.5h330.46A2.65 2.65 0 00336 453V84.48a2.65 2.65 0 00-2.77-2.48z"/><path class="cls-1" d="M254.29 0h-2.58v71.48h81.85L254.29 0z"/><path d="M171.28 148.23c-36.6 0-68 22.44-81.9 54.43L80.15 199a5.82 5.82 0 00-7.52 7.69L87.31 241a5.82 5.82 0 007.69 3l34.31-14.69a5.82 5.82 0 00-.13-10.75l-11.63-4.66c9.36-20.84 29.91-35.39 53.78-35.39 32.67 0 59.24 27.17 59.24 60.57s-26.58 60.57-59.24 60.57a58 58 0 01-38.07-14.27 15 15 0 00-20.54.7l-.22.22a15.06 15.06 0 00.9 22 88.35 88.35 0 0057.88 21.7c49.38 0 89.56-40.77 89.56-90.89s-40.17-90.88-89.56-90.88z" fill="#fff"/></g></g></svg>