<svg id="Capa_1" data-name="Capa 1" xmlns="http://www.w3.org/2000/svg" viewBox="0 0 241.49 72.05"><defs><style>.cls-1{fill:#fff}</style></defs><path class="cls-1" d="M91.36 19.21H78.61v6.37h12.75a3 3 0 003-2.95v-.46a3 3 0 00-3-2.96zm89.09 0h-13.54v4.34h13.54a2.17 2.17 0 100-4.34zm-30.13 0h-12.75v6.43h12.75a3 3 0 003-2.95v-.52a3 3 0 00-3-2.96zm30.13 9.09h-13.54v4.34h13.54a2.17 2.17 0 100-4.34zm37.76-9.09h-10.45V32.6h10.45a5.26 5.26 0 005.25-5.26v-2.87a5.26 5.26 0 00-5.25-5.26z" transform="translate(-.82 -.47)"/><path class="cls-1" d="M232.37.47H10.76A9.93 9.93 0 00.82 10.4v31.09a9.93 9.93 0 009.94 9.93h221.61a9.93 9.93 0 009.94-9.93V10.4a9.93 9.93 0 00-9.94-9.93zm-204.84 7a2.36 2.36 0 11-2.35 2.35 2.36 2.36 0 012.35-2.35zm12.56 10a1.73 1.73 0 01-1.73 1.73H21.3a1.65 1.65 0 00-1.64 1.64v1.06a1.65 1.65 0 001.64 1.64h13.53a5.26 5.26 0 015.26 5.25v3.26a5.26 5.26 0 01-5.26 5.25H16.67A1.72 1.72 0 0115 35.58v-1.26a1.72 1.72 0 011.72-1.72h17.01a1.65 1.65 0 001.64-1.6v-1.1a1.65 1.65 0 00-1.64-1.64H20.2A5.25 5.25 0 0115 23v-3.25a5.25 5.25 0 015.2-5.25h18.16a1.73 1.73 0 011.73 1.73zm29.47 9.88a10 10 0 01-10 10h-5.19a10 10 0 01-9.95-10V16.23a1.73 1.73 0 011.73-1.73h1.26a1.73 1.73 0 011.73 1.73V27.4a5.2 5.2 0 005.2 5.2h5.25a5.26 5.26 0 005.25-5.26V16.23a1.73 1.73 0 011.73-1.73h1.26a1.72 1.72 0 011.73 1.73zM99 23a7.4 7.4 0 01-7.39 7.39h-13v5.22a1.72 1.72 0 01-1.72 1.73h-1.27a1.72 1.72 0 01-1.72-1.73V16.22a1.72 1.72 0 011.72-1.72h16A7.4 7.4 0 0199 21.88zm29.47-5.49a1.72 1.72 0 01-1.73 1.73h-18.65v4.34h13.26a1.73 1.73 0 011.73 1.72v1.26a1.73 1.73 0 01-1.73 1.73h-13.26v4.31h18.69a1.72 1.72 0 011.73 1.72v1.26a1.72 1.72 0 01-1.73 1.73H105.1a1.73 1.73 0 01-1.73-1.73V16.23a1.73 1.73 0 011.73-1.73h21.68a1.72 1.72 0 011.73 1.73zM158 23a7.41 7.41 0 01-5.36 7.1l4.78 4.26a1.73 1.73 0 01-1.15 3h-1.18a3.65 3.65 0 01-2.42-.92l-6.8-6.07h-8.29v5.22a1.73 1.73 0 01-1.73 1.73h-1.26a1.72 1.72 0 01-1.73-1.73V16.22a1.72 1.72 0 011.73-1.72h16a7.4 7.4 0 017.41 7.38zm29.33 8a6.34 6.34 0 01-6.33 6.35h-17.08a1.73 1.73 0 01-1.73-1.73v-19.4a1.73 1.73 0 011.73-1.72H181a6.34 6.34 0 016.33 6.33 6.26 6.26 0 01-2.58 5.09 6.3 6.3 0 012.58 5.08zm10.21 4.56a1.72 1.72 0 01-1.72 1.73h-1.26a1.72 1.72 0 01-1.73-1.73V16.23a1.72 1.72 0 011.73-1.73h1.26a1.72 1.72 0 011.72 1.73zm30.64-8.22a10 10 0 01-10 10h-13.41a1.73 1.73 0 01-1.77-1.76V16.22a1.73 1.73 0 011.73-1.72h13.46a10 10 0 0110 10z" transform="translate(-.82 -.47)"/><path class="cls-1" d="M25.18 42a2.36 2.36 0 112.35 2.35A2.35 2.35 0 0125.18 42zM134 72.36a1.13 1.13 0 01-.8-.28 1.11 1.11 0 01-.27-.8v-9a1.11 1.11 0 01.27-.8 1.12 1.12 0 01.8-.27h5.65a.88.88 0 01.61.2.79.79 0 01.21.59.85.85 0 01-.21.61.84.84 0 01-.61.21h-4.78v3.07h4.43a.87.87 0 01.62.2.81.81 0 01.2.6.82.82 0 01-.2.61.87.87 0 01-.62.2h-4.43v3.24h4.78a.84.84 0 01.61.21 1 1 0 010 1.2.84.84 0 01-.61.21zm10.71.12a1 1 0 01-.65-.21.77.77 0 01-.29-.54.9.9 0 01.21-.66l3.62-4.82v.87l-3.45-4.62a1 1 0 01-.22-.67.81.81 0 01.29-.54 1 1 0 01.63-.21 1 1 0 01.56.15 2 2 0 01.5.5l2.85 3.92h-.65l2.83-3.92a1.94 1.94 0 01.49-.5 1.11 1.11 0 01.58-.15 1 1 0 01.65.21.76.76 0 01.29.53 1 1 0 01-.24.68l-3.45 4.62v-.87l3.61 4.82a1 1 0 01.22.66.77.77 0 01-.29.54 1 1 0 01-.66.21 1 1 0 01-.55-.16 2.15 2.15 0 01-.51-.5l-3-4.11h.7l-3 4.11a2 2 0 01-.5.5 1 1 0 01-.57.16zm16.37.03a5.94 5.94 0 01-3-.7 4.76 4.76 0 01-1.91-2 6.63 6.63 0 01-.66-3 7 7 0 01.38-2.36 5.11 5.11 0 011.09-1.8 4.83 4.83 0 011.75-1.16 6.36 6.36 0 012.33-.4 6.58 6.58 0 011.71.22 5.18 5.18 0 011.47.63 1 1 0 01.49 1.07.91.91 0 01-.26.47.84.84 0 01-.49.21 1 1 0 01-.64-.2 3.71 3.71 0 00-1.04-.49 5 5 0 00-1.16-.14 3.6 3.6 0 00-1.89.46 3 3 0 00-1.18 1.33 5.2 5.2 0 00-.39 2.13 5.28 5.28 0 00.39 2.14 2.87 2.87 0 001.18 1.34 3.6 3.6 0 001.89.46 4.79 4.79 0 001.19-.15 3.86 3.86 0 001.11-.47 1.16 1.16 0 01.62-.18.77.77 0 01.47.2.89.89 0 01.25.43 1 1 0 010 .54 1 1 0 01-.38.49 4.78 4.78 0 01-1.51.7 6.75 6.75 0 01-1.81.23zm7.97-.03a1 1 0 01-.75-.27 1.1 1.1 0 01-.26-.77v-9.32a1.09 1.09 0 01.26-.77 1.18 1.18 0 011.5 0 1 1 0 01.26.77v3.74h5.74v-3.74a1.09 1.09 0 01.26-.77 1.19 1.19 0 011.51 0 1.09 1.09 0 01.26.77v9.32a1.1 1.1 0 01-.26.77 1.19 1.19 0 01-1.51 0 1.1 1.1 0 01-.26-.77v-3.89h-5.74v3.89a1.1 1.1 0 01-.25.77 1 1 0 01-.76.27zm12.78 0a1 1 0 01-.61-.17.76.76 0 01-.28-.47 1.22 1.22 0 01.11-.65l4.18-9.26a1.5 1.5 0 01.5-.65 1.18 1.18 0 01.67-.2 1.14 1.14 0 01.65.2 1.43 1.43 0 01.5.65l4.19 9.26a1.1 1.1 0 01.13.66.69.69 0 01-.27.47 1 1 0 01-.58.16 1 1 0 01-.69-.21 1.84 1.84 0 01-.44-.66l-1-2.39.85.56h-6.67l.85-.56-1 2.39a2.09 2.09 0 01-.43.67.93.93 0 01-.66.2zm4.54-9.07l-2.22 5.26-.41-.5H189l-.39.5-2.23-5.26zm9.51 9.07a.91.91 0 01-.7-.25 1 1 0 01-.25-.73v-9.41a1 1 0 01.25-.75.84.84 0 01.64-.26.89.89 0 01.54.14 2.35 2.35 0 01.44.45l6 7.86h-.41V62a.87.87 0 01.95-1 1 1 0 01.7.25 1 1 0 01.23.71v9.49a1 1 0 01-.22.7.73.73 0 01-.6.25 1 1 0 01-.57-.14 2 2 0 01-.47-.46l-6-7.86h.39v7.56a1 1 0 01-.23.73.91.91 0 01-.69.25zm17.74.03a6.5 6.5 0 01-3.13-.69 4.67 4.67 0 01-1.93-2 6.51 6.51 0 01-.67-3 6.85 6.85 0 01.39-2.39 4.85 4.85 0 012.92-3 6.71 6.71 0 012.4-.4 7.73 7.73 0 011.78.21 5.6 5.6 0 011.69.72.87.87 0 01.38.94 1.08 1.08 0 01-.24.45.74.74 0 01-.44.24.85.85 0 01-.57-.13A4.84 4.84 0 00215 63a5.34 5.34 0 00-1.38-.16 3.86 3.86 0 00-2 .47 2.9 2.9 0 00-1.21 1.35 5.19 5.19 0 00-.41 2.17 4.17 4.17 0 00.94 3 3.54 3.54 0 002.76 1 7 7 0 001.28-.12 8.8 8.8 0 001.27-.35l-.4.9v-3.43h-1.74a.85.85 0 01-.6-.2.72.72 0 01-.22-.56.68.68 0 01.22-.55.85.85 0 01.6-.19h2.61a.75.75 0 01.83.82V71a1.16 1.16 0 01-.14.58.76.76 0 01-.43.35 10 10 0 01-1.6.42 9.79 9.79 0 01-1.76.16zm8.82-.15a1.09 1.09 0 01-.8-.28 1.11 1.11 0 01-.28-.8v-9a1.11 1.11 0 01.28-.8 1.09 1.09 0 01.8-.27h5.64a.86.86 0 01.61.2.76.76 0 01.22.59.75.75 0 01-.83.82h-4.77v3.07h4.43a.84.84 0 01.61.2.81.81 0 01.21.6.82.82 0 01-.21.61.84.84 0 01-.61.2h-4.43v3.24h4.77a.82.82 0 01.61.21.93.93 0 010 1.2.82.82 0 01-.61.21z" transform="translate(-.82 -.47)"/></svg>