<svg width="86" height="86" fill="none" xmlns="http://www.w3.org/2000/svg"><g clip-path="url(#clip0)" fill="#A5A5A5"><path d="M62.708 86c-12.842 0-23.291-10.449-23.291-23.292 0-12.842 10.449-23.291 23.291-23.291C75.551 39.417 86 49.866 86 62.708 86 75.551 75.551 86 62.708 86zm0-43C51.844 43 43 51.844 43 62.708c0 10.865 8.844 19.709 19.708 19.709 10.865 0 19.709-8.844 19.709-19.709C82.417 51.844 73.573 43 62.708 43z"/><path d="M73.458 64.5a1.8 1.8 0 01-1.268-.523l-9.482-9.485-9.481 9.481a1.793 1.793 0 01-2.534 0 1.793 1.793 0 010-2.533l10.75-10.75a1.793 1.793 0 012.534 0l10.75 10.75a1.793 1.793 0 01-1.269 3.06z"/><path d="M62.708 75.25a1.792 1.792 0 01-1.791-1.792v-21.5a1.792 1.792 0 013.583 0v21.5c0 .99-.803 1.792-1.792 1.792zm-28.666 0H8.958C4.017 75.25 0 71.233 0 66.292V19.708c0-4.941 4.017-8.958 8.958-8.958h7.167a1.792 1.792 0 010 3.583H8.958a5.382 5.382 0 00-5.375 5.375v46.584a5.382 5.382 0 005.375 5.375h25.084a1.792 1.792 0 010 3.583z"/><path d="M41.208 21.5h-21.5a5.382 5.382 0 01-5.375-5.375V8.958c0-.989.803-1.791 1.792-1.791h5.554C22.511 3.082 26.133 0 30.46 0c4.324 0 7.947 3.082 8.778 7.167h5.555c.989 0 1.791.802 1.791 1.791v7.167a5.382 5.382 0 01-5.375 5.375zM17.917 10.75v5.375c0 .985.806 1.792 1.791 1.792h21.5c.986 0 1.792-.807 1.792-1.792V10.75h-5.375a1.792 1.792 0 01-1.792-1.792 5.382 5.382 0 00-5.375-5.375 5.382 5.382 0 00-5.375 5.375c0 .99-.802 1.792-1.791 1.792h-5.375zm30.458 21.5H12.542a1.792 1.792 0 010-3.583h35.833a1.792 1.792 0 010 3.583zM37.625 43H12.542a1.792 1.792 0 010-3.583h25.083a1.792 1.792 0 010 3.583zm-7.167 10.75H12.542a1.792 1.792 0 010-3.583h17.916a1.792 1.792 0 010 3.583z"/><path d="M59.125 32.25a1.792 1.792 0 01-1.792-1.792v-10.75a5.382 5.382 0 00-5.375-5.375h-7.166a1.792 1.792 0 010-3.583h7.166c4.942 0 8.959 4.017 8.959 8.958v10.75c0 .99-.803 1.792-1.792 1.792z"/></g><defs><clipPath id="clip0"><path fill="#fff" d="M0 0h86v86H0z"/></clipPath></defs></svg>