<svg width="87" height="87" viewBox="0 0 87 87" fill="none" xmlns="http://www.w3.org/2000/svg">
<g clip-path="url(#clip0)">
<path d="M34.4375 76.125H9.06249C4.06724 76.125 -7.62939e-06 72.0614 -7.62939e-06 67.0625V19.9375C-7.62939e-06 14.9386 4.06724 10.875 9.06249 10.875H16.3125C17.313 10.875 18.125 11.687 18.125 12.6875C18.125 13.688 17.313 14.5 16.3125 14.5H9.06249C6.06462 14.5 3.62499 16.9396 3.62499 19.9375V67.0625C3.62499 70.0604 6.06462 72.5 9.06249 72.5H34.4375C35.438 72.5 36.25 73.312 36.25 74.3125C36.25 75.313 35.438 76.125 34.4375 76.125Z" fill="#EA6012"/>
<path d="M59.8125 32.625C58.812 32.625 58 31.813 58 30.8125V19.9375C58 16.9396 55.5604 14.5 52.5625 14.5H45.3125C44.312 14.5 43.5 13.688 43.5 12.6875C43.5 11.687 44.312 10.875 45.3125 10.875H52.5625C57.5577 10.875 61.625 14.9386 61.625 19.9375V30.8125C61.625 31.813 60.813 32.625 59.8125 32.625Z" fill="#EA6012"/>
<path d="M41.6875 21.75H19.9375C16.9396 21.75 14.5 19.3104 14.5 16.3125V9.0625C14.5 8.062 15.312 7.25 16.3125 7.25H21.9313C22.7759 3.1175 26.4335 0 30.8125 0C35.1915 0 38.8491 3.1175 39.6938 7.25H45.3125C46.313 7.25 47.125 8.062 47.125 9.0625V16.3125C47.125 19.3104 44.6854 21.75 41.6875 21.75ZM18.125 10.875V16.3125C18.125 17.3094 18.937 18.125 19.9375 18.125H41.6875C42.688 18.125 43.5 17.3094 43.5 16.3125V10.875H38.0625C37.062 10.875 36.25 10.063 36.25 9.0625C36.25 6.06462 33.8104 3.625 30.8125 3.625C27.8146 3.625 25.375 6.06462 25.375 9.0625C25.375 10.063 24.563 10.875 23.5625 10.875H18.125Z" fill="#EA6012"/>
<path d="M63.4375 87C50.4455 87 39.875 76.4295 39.875 63.4375C39.875 50.4455 50.4455 39.875 63.4375 39.875C76.4295 39.875 87 50.4455 87 63.4375C87 76.4295 76.4295 87 63.4375 87ZM63.4375 43.5C52.4429 43.5 43.5 52.4465 43.5 63.4375C43.5 74.4285 52.4429 83.375 63.4375 83.375C74.4321 83.375 83.375 74.4285 83.375 63.4375C83.375 52.4465 74.4321 43.5 63.4375 43.5Z" fill="#EA6012"/>
<path d="M63.4375 76.125C62.437 76.125 61.625 75.313 61.625 74.3125V52.5625C61.625 51.562 62.437 50.75 63.4375 50.75C64.438 50.75 65.25 51.562 65.25 52.5625V74.3125C65.25 75.313 64.438 76.125 63.4375 76.125Z" fill="#EA6012"/>
<path d="M74.3125 65.25H52.5625C51.562 65.25 50.75 64.438 50.75 63.4375C50.75 62.437 51.562 61.625 52.5625 61.625H74.3125C75.313 61.625 76.125 62.437 76.125 63.4375C76.125 64.438 75.313 65.25 74.3125 65.25Z" fill="#EA6012"/>
<path d="M48.9375 32.625H12.6875C11.687 32.625 10.875 31.813 10.875 30.8125C10.875 29.812 11.687 29 12.6875 29H48.9375C49.938 29 50.75 29.812 50.75 30.8125C50.75 31.813 49.938 32.625 48.9375 32.625Z" fill="#EA6012"/>
<path d="M38.0625 43.5H12.6875C11.687 43.5 10.875 42.688 10.875 41.6875C10.875 40.687 11.687 39.875 12.6875 39.875H38.0625C39.063 39.875 39.875 40.687 39.875 41.6875C39.875 42.688 39.063 43.5 38.0625 43.5Z" fill="#EA6012"/>
<path d="M30.8125 54.375H12.6875C11.687 54.375 10.875 53.563 10.875 52.5625C10.875 51.562 11.687 50.75 12.6875 50.75H30.8125C31.813 50.75 32.625 51.562 32.625 52.5625C32.625 53.563 31.813 54.375 30.8125 54.375Z" fill="#EA6012"/>
</g>
<defs>
<clipPath id="clip0">
<rect width="87" height="87" fill="white"/>
</clipPath>
</defs>
</svg>
