<svg xmlns="http://www.w3.org/2000/svg" viewBox="0 0 336 455.5"><defs><style>.cls-1{fill:#01499f;}.cls-2{fill:#fff;}</style></defs><title>icon-doc-updRecurso 3</title><g id="Capa_2" data-name="Capa 2"><g id="Capa_1-2" data-name="Capa 1"><path class="cls-1" d="M333.23,82h-90.4a2.65,2.65,0,0,1-2.77-2.5V3A2.65,2.65,0,0,0,237.29.5H2.77A2.65,2.65,0,0,0,0,3V453a2.65,2.65,0,0,0,2.77,2.5H333.23A2.65,2.65,0,0,0,336,453V84.48A2.65,2.65,0,0,0,333.23,82Z"/><polygon class="cls-1" points="254.29 0 251.71 0 251.71 71.48 333.56 71.48 254.29 0"/><path class="cls-2" d="M171.28,148.23c-36.6,0-68,22.44-81.9,54.43L80.15,199a5.82,5.82,0,0,0-7.52,7.69L87.31,241A5.82,5.82,0,0,0,95,244l34.31-14.69a5.82,5.82,0,0,0-.13-10.75l-11.63-4.66c9.36-20.84,29.91-35.39,53.78-35.39,32.67,0,59.24,27.17,59.24,60.57s-26.58,60.57-59.24,60.57a58,58,0,0,1-38.07-14.27,15,15,0,0,0-20.54.7l-.22.22a15.06,15.06,0,0,0,.9,22A88.35,88.35,0,0,0,171.28,330c49.38,0,89.56-40.77,89.56-90.89S220.67,148.23,171.28,148.23Z"/></g></g></svg>