<svg id="Capa_1" data-name="Capa 1" xmlns="http://www.w3.org/2000/svg" viewBox="0 0 241.49 72.05"><defs><style>.cls-1{fill:#fff;}</style></defs><path class="cls-1" d="M91.36,19.21H78.61v6.37H91.36a3,3,0,0,0,3-2.95v-.46A3,3,0,0,0,91.36,19.21Z" transform="translate(-0.82 -0.47)"/><path class="cls-1" d="M180.45,19.21H166.91v4.34h13.54a2.17,2.17,0,1,0,0-4.34Z" transform="translate(-0.82 -0.47)"/><path class="cls-1" d="M150.32,19.21H137.57v6.43h12.75a3,3,0,0,0,3-2.95v-.52A3,3,0,0,0,150.32,19.21Z" transform="translate(-0.82 -0.47)"/><path class="cls-1" d="M180.45,28.3H166.91v4.34h13.54a2.17,2.17,0,1,0,0-4.34Z" transform="translate(-0.82 -0.47)"/><path class="cls-1" d="M218.21,19.21H207.76V32.6h10.45a5.26,5.26,0,0,0,5.25-5.26V24.47A5.26,5.26,0,0,0,218.21,19.21Z" transform="translate(-0.82 -0.47)"/><path class="cls-1" d="M232.37.47H10.76A9.93,9.93,0,0,0,.82,10.4V41.49a9.93,9.93,0,0,0,9.94,9.93H232.37a9.93,9.93,0,0,0,9.94-9.93V10.4A9.93,9.93,0,0,0,232.37.47Zm-204.84,7a2.36,2.36,0,1,1-2.35,2.35A2.36,2.36,0,0,1,27.53,7.47Zm12.56,10a1.73,1.73,0,0,1-1.73,1.73H21.3a1.65,1.65,0,0,0-1.64,1.64v1.06a1.65,1.65,0,0,0,1.64,1.64H34.83a5.26,5.26,0,0,1,5.26,5.25v3.26a5.26,5.26,0,0,1-5.26,5.25H16.67A1.72,1.72,0,0,1,15,35.58V34.32a1.72,1.72,0,0,1,1.72-1.72H33.73A1.65,1.65,0,0,0,35.37,31V29.9a1.65,1.65,0,0,0-1.64-1.64H20.2A5.25,5.25,0,0,1,15,23V19.75A5.25,5.25,0,0,1,20.2,14.5H38.36a1.73,1.73,0,0,1,1.73,1.73Zm29.47,9.88a10,10,0,0,1-10,10H54.37a10,10,0,0,1-9.95-10V16.23a1.73,1.73,0,0,1,1.73-1.73h1.26a1.73,1.73,0,0,1,1.73,1.73V27.4a5.2,5.2,0,0,0,5.2,5.2h5.25a5.26,5.26,0,0,0,5.25-5.26V16.23a1.73,1.73,0,0,1,1.73-1.73h1.26a1.72,1.72,0,0,1,1.73,1.73ZM99,23a7.4,7.4,0,0,1-7.39,7.39h-13v5.22a1.72,1.72,0,0,1-1.72,1.73H75.62a1.72,1.72,0,0,1-1.72-1.73V16.22a1.72,1.72,0,0,1,1.72-1.72h16A7.4,7.4,0,0,1,99,21.88Zm29.47-5.49a1.72,1.72,0,0,1-1.73,1.73H108.09v4.34h13.26a1.73,1.73,0,0,1,1.73,1.72v1.26a1.73,1.73,0,0,1-1.73,1.73H108.09V32.6h18.69a1.72,1.72,0,0,1,1.73,1.72v1.26a1.72,1.72,0,0,1-1.73,1.73H105.1a1.73,1.73,0,0,1-1.73-1.73V16.23a1.73,1.73,0,0,1,1.73-1.73h21.68a1.72,1.72,0,0,1,1.73,1.73ZM158,23a7.41,7.41,0,0,1-5.36,7.1l4.78,4.26a1.73,1.73,0,0,1-1.15,3h-1.18a3.65,3.65,0,0,1-2.42-.92l-6.8-6.07h-8.29v5.22a1.73,1.73,0,0,1-1.73,1.73h-1.26a1.72,1.72,0,0,1-1.73-1.73V16.22a1.72,1.72,0,0,1,1.73-1.72h16A7.4,7.4,0,0,1,158,21.88ZM187.33,31A6.34,6.34,0,0,1,181,37.35H163.92a1.73,1.73,0,0,1-1.73-1.73V16.22a1.73,1.73,0,0,1,1.73-1.72H181a6.34,6.34,0,0,1,6.33,6.33,6.26,6.26,0,0,1-2.58,5.09A6.3,6.3,0,0,1,187.33,31Zm10.21,4.56a1.72,1.72,0,0,1-1.72,1.73h-1.26a1.72,1.72,0,0,1-1.73-1.73V16.23a1.72,1.72,0,0,1,1.73-1.73h1.26a1.72,1.72,0,0,1,1.72,1.73Zm30.64-8.22a10,10,0,0,1-10,10H204.77A1.73,1.73,0,0,1,203,35.58V16.22a1.73,1.73,0,0,1,1.73-1.72h13.46a10,10,0,0,1,10,10Z" transform="translate(-0.82 -0.47)"/><path class="cls-1" d="M25.18,42a2.36,2.36,0,1,1,2.35,2.35A2.35,2.35,0,0,1,25.18,42Z" transform="translate(-0.82 -0.47)"/><path class="cls-1" d="M134,72.36a1.13,1.13,0,0,1-.8-.28,1.11,1.11,0,0,1-.27-.8v-9a1.11,1.11,0,0,1,.27-.8,1.12,1.12,0,0,1,.8-.27h5.65a.88.88,0,0,1,.61.2.79.79,0,0,1,.21.59.85.85,0,0,1-.21.61.84.84,0,0,1-.61.21h-4.78v3.07h4.43a.87.87,0,0,1,.62.2.81.81,0,0,1,.2.6.82.82,0,0,1-.2.61.87.87,0,0,1-.62.2h-4.43v3.24h4.78a.84.84,0,0,1,.61.21,1,1,0,0,1,0,1.2.84.84,0,0,1-.61.21Z" transform="translate(-0.82 -0.47)"/><path class="cls-1" d="M144.71,72.48a1,1,0,0,1-.65-.21.77.77,0,0,1-.29-.54.9.9,0,0,1,.21-.66l3.62-4.82v.87l-3.45-4.62a1,1,0,0,1-.22-.67.81.81,0,0,1,.29-.54,1,1,0,0,1,.63-.21,1,1,0,0,1,.56.15,2,2,0,0,1,.5.5l2.85,3.92h-.65l2.83-3.92a1.94,1.94,0,0,1,.49-.5,1.11,1.11,0,0,1,.58-.15,1,1,0,0,1,.65.21.76.76,0,0,1,.29.53,1,1,0,0,1-.24.68l-3.45,4.62v-.87l3.61,4.82a1,1,0,0,1,.22.66.77.77,0,0,1-.29.54,1,1,0,0,1-.66.21,1,1,0,0,1-.55-.16,2.15,2.15,0,0,1-.51-.5l-3-4.11h.7l-3,4.11a2,2,0,0,1-.5.5A1,1,0,0,1,144.71,72.48Z" transform="translate(-0.82 -0.47)"/><path class="cls-1" d="M161.08,72.51a5.94,5.94,0,0,1-3-.7,4.76,4.76,0,0,1-1.91-2,6.63,6.63,0,0,1-.66-3,7,7,0,0,1,.38-2.36,5.11,5.11,0,0,1,1.09-1.8,4.83,4.83,0,0,1,1.75-1.16,6.36,6.36,0,0,1,2.33-.4,6.58,6.58,0,0,1,1.71.22,5.18,5.18,0,0,1,1.47.63,1,1,0,0,1,.49,1.07.91.91,0,0,1-.26.47.84.84,0,0,1-.49.21,1,1,0,0,1-.64-.2A3.71,3.71,0,0,0,162.3,63a5,5,0,0,0-1.16-.14,3.6,3.6,0,0,0-1.89.46,3,3,0,0,0-1.18,1.33,5.2,5.2,0,0,0-.39,2.13,5.28,5.28,0,0,0,.39,2.14,2.87,2.87,0,0,0,1.18,1.34,3.6,3.6,0,0,0,1.89.46,4.79,4.79,0,0,0,1.19-.15,3.86,3.86,0,0,0,1.11-.47,1.16,1.16,0,0,1,.62-.18.77.77,0,0,1,.47.2.89.89,0,0,1,.25.43,1,1,0,0,1,0,.54,1,1,0,0,1-.38.49,4.78,4.78,0,0,1-1.51.7A6.75,6.75,0,0,1,161.08,72.51Z" transform="translate(-0.82 -0.47)"/><path class="cls-1" d="M169.05,72.48a1,1,0,0,1-.75-.27,1.1,1.1,0,0,1-.26-.77V62.12a1.09,1.09,0,0,1,.26-.77,1.18,1.18,0,0,1,1.5,0,1,1,0,0,1,.26.77v3.74h5.74V62.12a1.09,1.09,0,0,1,.26-.77,1.19,1.19,0,0,1,1.51,0,1.09,1.09,0,0,1,.26.77v9.32a1.1,1.1,0,0,1-.26.77,1.19,1.19,0,0,1-1.51,0,1.1,1.1,0,0,1-.26-.77V67.55h-5.74v3.89a1.1,1.1,0,0,1-.25.77A1,1,0,0,1,169.05,72.48Z" transform="translate(-0.82 -0.47)"/><path class="cls-1" d="M181.83,72.48a1,1,0,0,1-.61-.17.76.76,0,0,1-.28-.47,1.22,1.22,0,0,1,.11-.65l4.18-9.26a1.5,1.5,0,0,1,.5-.65,1.18,1.18,0,0,1,.67-.2,1.14,1.14,0,0,1,.65.2,1.43,1.43,0,0,1,.5.65l4.19,9.26a1.1,1.1,0,0,1,.13.66.69.69,0,0,1-.27.47,1,1,0,0,1-.58.16,1,1,0,0,1-.69-.21,1.84,1.84,0,0,1-.44-.66l-1-2.39.85.56h-6.67l.85-.56-1,2.39a2.09,2.09,0,0,1-.43.67A.93.93,0,0,1,181.83,72.48Zm4.54-9.07-2.22,5.26-.41-.5H189l-.39.5-2.23-5.26Z" transform="translate(-0.82 -0.47)"/><path class="cls-1" d="M195.88,72.48a.91.91,0,0,1-.7-.25,1,1,0,0,1-.25-.73V62.09a1,1,0,0,1,.25-.75.84.84,0,0,1,.64-.26.89.89,0,0,1,.54.14,2.35,2.35,0,0,1,.44.45l6,7.86h-.41V62a.87.87,0,0,1,.95-1,1,1,0,0,1,.7.25,1,1,0,0,1,.23.71v9.49a1,1,0,0,1-.22.7.73.73,0,0,1-.6.25,1,1,0,0,1-.57-.14,2,2,0,0,1-.47-.46l-6-7.86h.39V71.5a1,1,0,0,1-.23.73A.91.91,0,0,1,195.88,72.48Z" transform="translate(-0.82 -0.47)"/><path class="cls-1" d="M213.62,72.51a6.5,6.5,0,0,1-3.13-.69,4.67,4.67,0,0,1-1.93-2,6.51,6.51,0,0,1-.67-3,6.85,6.85,0,0,1,.39-2.39,4.85,4.85,0,0,1,2.92-3,6.71,6.71,0,0,1,2.4-.4,7.73,7.73,0,0,1,1.78.21,5.6,5.6,0,0,1,1.69.72.87.87,0,0,1,.38.94,1.08,1.08,0,0,1-.24.45.74.74,0,0,1-.44.24.85.85,0,0,1-.57-.13A4.84,4.84,0,0,0,215,63a5.34,5.34,0,0,0-1.38-.16,3.86,3.86,0,0,0-2,.47,2.9,2.9,0,0,0-1.21,1.35,5.19,5.19,0,0,0-.41,2.17,4.17,4.17,0,0,0,.94,3,3.54,3.54,0,0,0,2.76,1,7,7,0,0,0,1.28-.12,8.8,8.8,0,0,0,1.27-.35l-.4.9V67.83h-1.74a.85.85,0,0,1-.6-.2.72.72,0,0,1-.22-.56.68.68,0,0,1,.22-.55.85.85,0,0,1,.6-.19h2.61a.75.75,0,0,1,.83.82V71a1.16,1.16,0,0,1-.14.58.76.76,0,0,1-.43.35,10,10,0,0,1-1.6.42A9.79,9.79,0,0,1,213.62,72.51Z" transform="translate(-0.82 -0.47)"/><path class="cls-1" d="M222.44,72.36a1.09,1.09,0,0,1-.8-.28,1.11,1.11,0,0,1-.28-.8v-9a1.11,1.11,0,0,1,.28-.8,1.09,1.09,0,0,1,.8-.27h5.64a.86.86,0,0,1,.61.2.76.76,0,0,1,.22.59.75.75,0,0,1-.83.82h-4.77v3.07h4.43a.84.84,0,0,1,.61.2.81.81,0,0,1,.21.6.82.82,0,0,1-.21.61.84.84,0,0,1-.61.2h-4.43v3.24h4.77a.82.82,0,0,1,.61.21.93.93,0,0,1,0,1.2.82.82,0,0,1-.61.21Z" transform="translate(-0.82 -0.47)"/></svg>