<svg width="86" height="86" viewBox="0 0 86 86" fill="none" xmlns="http://www.w3.org/2000/svg">
<g clip-path="url(#clip0)">
<path d="M62.7083 86C49.8657 86 39.4167 75.551 39.4167 62.7083C39.4167 49.8657 49.8657 39.4167 62.7083 39.4167C75.551 39.4167 86 49.8657 86 62.7083C86 75.551 75.551 86 62.7083 86ZM62.7083 43C51.8437 43 43 51.8437 43 62.7083C43 73.573 51.8437 82.4167 62.7083 82.4167C73.573 82.4167 82.4167 73.573 82.4167 62.7083C82.4167 51.8437 73.573 43 62.7083 43Z" fill="#A5A5A5"/>
<path d="M73.4584 64.5C72.9997 64.5 72.541 64.3244 72.1899 63.9768L62.7084 54.4917L53.2269 63.9732C52.5281 64.672 51.3922 64.672 50.6934 63.9732C49.9947 63.2745 49.9947 62.1385 50.6934 61.4398L61.4434 50.6898C62.1422 49.9911 63.2781 49.9911 63.9769 50.6898L74.7269 61.4398C75.4256 62.1385 75.4256 63.2745 74.7269 63.9732C74.3757 64.3244 73.917 64.5 73.4584 64.5Z" fill="#A5A5A5"/>
<path d="M62.7083 75.25C61.7193 75.25 60.9167 74.4474 60.9167 73.4584V51.9584C60.9167 50.9694 61.7193 50.1667 62.7083 50.1667C63.6973 50.1667 64.5 50.9694 64.5 51.9584V73.4584C64.5 74.4474 63.6973 75.25 62.7083 75.25Z" fill="#A5A5A5"/>
<path d="M34.0417 75.25H8.95833C4.01692 75.25 0 71.2331 0 66.2917V19.7083C0 14.7669 4.01692 10.75 8.95833 10.75H16.125C17.114 10.75 17.9167 11.5527 17.9167 12.5417C17.9167 13.5307 17.114 14.3333 16.125 14.3333H8.95833C5.99492 14.3333 3.58333 16.7449 3.58333 19.7083V66.2917C3.58333 69.2551 5.99492 71.6667 8.95833 71.6667H34.0417C35.0307 71.6667 35.8333 72.4693 35.8333 73.4583C35.8333 74.4473 35.0307 75.25 34.0417 75.25Z" fill="#A5A5A5"/>
<path d="M41.2083 21.5H19.7083C16.7449 21.5 14.3333 19.0884 14.3333 16.125V8.95833C14.3333 7.96933 15.136 7.16667 16.125 7.16667H21.6792C22.5105 3.08167 26.1333 0 30.4583 0C34.7834 0 38.4062 3.08167 39.2375 7.16667H44.7917C45.7807 7.16667 46.5834 7.96933 46.5834 8.95833V16.125C46.5834 19.0884 44.1718 21.5 41.2083 21.5ZM17.9167 10.75V16.125C17.9167 17.1104 18.7229 17.9167 19.7083 17.9167H41.2083C42.1938 17.9167 43 17.1104 43 16.125V10.75H37.625C36.636 10.75 35.8333 9.94733 35.8333 8.95833C35.8333 5.99492 33.4218 3.58333 30.4583 3.58333C27.4949 3.58333 25.0833 5.99492 25.0833 8.95833C25.0833 9.94733 24.2807 10.75 23.2917 10.75H17.9167Z" fill="#A5A5A5"/>
<path d="M48.375 32.25H12.5417C11.5527 32.25 10.75 31.4474 10.75 30.4584C10.75 29.4694 11.5527 28.6667 12.5417 28.6667H48.375C49.364 28.6667 50.1667 29.4694 50.1667 30.4584C50.1667 31.4474 49.364 32.25 48.375 32.25Z" fill="#A5A5A5"/>
<path d="M37.625 43H12.5417C11.5527 43 10.75 42.1973 10.75 41.2083C10.75 40.2193 11.5527 39.4167 12.5417 39.4167H37.625C38.614 39.4167 39.4167 40.2193 39.4167 41.2083C39.4167 42.1973 38.614 43 37.625 43Z" fill="#A5A5A5"/>
<path d="M30.4583 53.75H12.5417C11.5527 53.75 10.75 52.9473 10.75 51.9584C10.75 50.9694 11.5527 50.1667 12.5417 50.1667H30.4583C31.4473 50.1667 32.25 50.9694 32.25 51.9584C32.25 52.9473 31.4473 53.75 30.4583 53.75Z" fill="#A5A5A5"/>
<path d="M59.125 32.25C58.136 32.25 57.3333 31.4473 57.3333 30.4583V19.7083C57.3333 16.7449 54.9217 14.3333 51.9583 14.3333H44.7917C43.8027 14.3333 43 13.5307 43 12.5417C43 11.5527 43.8027 10.75 44.7917 10.75H51.9583C56.8997 10.75 60.9167 14.7669 60.9167 19.7083V30.4583C60.9167 31.4473 60.114 32.25 59.125 32.25Z" fill="#A5A5A5"/>
</g>
<defs>
<clipPath id="clip0">
<rect width="86" height="86" fill="white"/>
</clipPath>
</defs>
</svg>
